<?xml version="1.0" encoding="iso-8859-1"?>
<!-- Generator: Adobe Illustrator 19.0.0, SVG Export Plug-In . SVG Version: 6.00 Build 0)  -->
<svg version="1.1" id="Layer_1" xmlns="http://www.w3.org/2000/svg" xmlns:xlink="http://www.w3.org/1999/xlink" x="0px" y="0px"
	 viewBox="0 0 512 512" style="enable-background:new 0 0 512 512;" xml:space="preserve">
<path d="M417.34,512H94.668c-13.2,0-24-10.8-24-24V24c0-13.2,10.8-24,24-24h322.664c13.2,0,24,10.8,24,24v464
	C441.34,501.2,430.54,512,417.34,512z"/>
<g>
	<rect x="94.564" y="39.904" style="fill:#FFFFFF;" width="322.88" height="408.96"/>
	<path style="fill:#FFFFFF;" d="M257.74,497.4c-9.616,0-17.44-7.832-17.44-17.448s7.824-17.44,17.44-17.44s17.44,7.824,17.44,17.44
		S267.356,497.4,257.74,497.4z M257.74,466.512c-7.408,0-13.44,6.032-13.44,13.44c0,7.416,6.032,13.448,13.44,13.448
		c7.408,0,13.44-6.032,13.44-13.448C271.18,472.544,265.148,466.512,257.74,466.512z"/>
</g>
<g>
</g>
<g>
</g>
<g>
</g>
<g>
</g>
<g>
</g>
<g>
</g>
<g>
</g>
<g>
</g>
<g>
</g>
<g>
</g>
<g>
</g>
<g>
</g>
<g>
</g>
<g>
</g>
<g>
</g>
</svg>
